HIERARCHY
ROOT Hips
{
	OFFSET 0.000000 0.000000 0.000000
	CHANNELS 6 Xposition Yposition Zposition Xrotation Yrotation Zrotation
	JOINT Spine
	{
		OFFSET 0.000000 0.044490 0.066735
		CHANNELS 3 Xrotation Yrotation Zrotation
		JOINT Spine1
		{
			OFFSET 0.000000 0.015451 0.087628
			CHANNELS 3 Xrotation Yrotation Zrotation
			JOINT Spine2
			{
				OFFSET 0.000000 0.007755 0.088641
				CHANNELS 3 Xrotation Yrotation Zrotation
				JOINT Spine3
				{
					OFFSET 0.000000 0.000000 0.088980
					CHANNELS 3 Xrotation Yrotation Zrotation
					JOINT Neck
					{
						OFFSET 0.000000 -0.033367 0.233572
						CHANNELS 3 Xrotation Yrotation Zrotation
						JOINT Head
						{
							OFFSET 0.000000 -0.021245 0.120488
							CHANNELS 3 Xrotation Yrotation Zrotation
							End Site
							{
								OFFSET 0.000000 0.000000 0.000000
							}
						}
					}
					JOINT RightShoulder
					{
						OFFSET -0.026917 -0.044862 0.145355
						CHANNELS 3 Xrotation Yrotation Zrotation
						JOINT RightArm
						{
							OFFSET -0.133690 0.000000 0.000000
							CHANNELS 3 Xrotation Yrotation Zrotation
							JOINT RightForeArm
							{
								OFFSET -0.257725 0.000000 0.000000
								CHANNELS 3 Xrotation Yrotation Zrotation
								JOINT RightHand
								{
									OFFSET -0.216749 0.000000 0.000000
									CHANNELS 3 Xrotation Yrotation Zrotation
									JOINT RightHandEnd
									{
										OFFSET -0.062518 0.000000 0.000000
										CHANNELS 3 Xrotation Yrotation Zrotation
										End Site
										{
											OFFSET 0.000000 0.000000 0.000000
										}
									}
									JOINT RightHandThumb1
									{
										OFFSET -0.025007 -0.041679 -0.016672
										CHANNELS 3 Xrotation Yrotation Zrotation
										End Site
										{
											OFFSET 0.000000 0.000000 0.000000
										}
									}
								}
							}
						}
					}
					JOINT LeftShoulder
					{
						OFFSET 0.026917 -0.044862 0.145355
						CHANNELS 3 Xrotation Yrotation Zrotation
						JOINT LeftArm
						{
							OFFSET 0.133690 0.000000 0.000000
							CHANNELS 3 Xrotation Yrotation Zrotation
							JOINT LeftForeArm
							{
								OFFSET 0.257725 0.000000 0.000000
								CHANNELS 3 Xrotation Yrotation Zrotation
								JOINT LeftHand
								{
									OFFSET 0.216749 0.000000 0.000000
									CHANNELS 3 Xrotation Yrotation Zrotation
									JOINT LeftHandEnd
									{
										OFFSET 0.062518 0.000000 0.000000
										CHANNELS 3 Xrotation Yrotation Zrotation
										End Site
										{
											OFFSET 0.000000 0.000000 0.000000
										}
									}
									JOINT LeftHandThumb1
									{
										OFFSET 0.025007 -0.041679 -0.016672
										CHANNELS 3 Xrotation Yrotation Zrotation
										End Site
										{
											OFFSET 0.000000 0.000000 0.000000
										}
									}
								}
							}
						}
					}
				}
			}
		}
	}
	JOINT RightUpLeg
	{
		OFFSET -0.079855 0.000000 -0.023329
		CHANNELS 3 Xrotation Yrotation Zrotation
		JOINT RightLeg
		{
			OFFSET 0.000000 0.000000 -0.366572
			CHANNELS 3 Xrotation Yrotation Zrotation
			JOINT RightFoot
			{
				OFFSET 0.000000 0.000000 -0.363650
				CHANNELS 3 Xrotation Yrotation Zrotation
				JOINT RightToeBase
				{
					OFFSET 0.000000 -0.114715 -0.041753
					CHANNELS 3 Xrotation Yrotation Zrotation
					End Site
					{
						OFFSET 0.000000 0.000000 0.000000
					}
				}
			}
		}
	}
	JOINT LeftUpLeg
	{
		OFFSET 0.079855 0.000000 -0.023329
		CHANNELS 3 Xrotation Yrotation Zrotation
		JOINT LeftLeg
		{
			OFFSET 0.000000 0.000000 -0.366572
			CHANNELS 3 Xrotation Yrotation Zrotation
			JOINT LeftFoot
			{
				OFFSET 0.000000 0.000000 -0.363650
				CHANNELS 3 Xrotation Yrotation Zrotation
				JOINT LeftToeBase
				{
					OFFSET 0.000000 -0.114715 -0.041753
					CHANNELS 3 Xrotation Yrotation Zrotation
					End Site
					{
						OFFSET 0.000000 0.000000 0.000000
					}
				}
			}
		}
	}
}
MOTION
Frames: 8
Frame Time: 0.033333
-0.277510 -0.006579 0.824916 -3.179000 -5.694700 -14.842100 -1.157500 5.438600 0.423800 -0.601500 -0.238500 0.052800 -0.710700 4.106200 0.051000 0.553200 1.462300 -1.407200 3.566800 -5.313800 -3.675800 11.209600 -5.768800 1.730500 -23.709800 23.323600 30.412100 -59.506600 -0.954400 33.962300 0.000000 0.000100 61.499100 5.189900 31.546500 9.399800 0.000000 0.000000 0.000000 0.000000 0.000000 0.000000 0.023300 4.355200 -16.646000 28.557500 60.162300 -47.881600 -0.000100 0.000000 -121.030400 -17.528600 -17.357200 -3.751900 0.000000 0.000000 0.000000 0.000000 0.000000 0.000000 -9.428100 14.212400 -40.544500 16.102300 0.000000 0.000000 -3.977800 5.774300 -22.090300 -22.302100 0.000000 0.000000 4.052700 5.379500 29.581400 15.723900 0.000000 0.000000 5.055300 6.546100 19.148900 -17.605800 0.000000 0.000000 
-0.304046 -0.010229 0.819371 -5.428300 -5.355000 -28.800000 -1.007700 5.728000 0.351100 -0.477800 0.352900 0.136700 -0.607200 4.953800 -0.110900 0.466400 1.585600 -1.561400 2.696000 -5.484300 -4.106000 11.167300 -5.536600 2.113500 -23.581700 22.261200 29.168500 -63.221000 -2.362600 31.638300 0.000000 0.000100 65.164500 7.730800 35.652600 6.524300 0.000000 0.000000 0.000000 0.000000 0.000000 0.000000 0.256800 3.954700 -16.698200 29.362400 59.286500 -48.193100 -0.000100 0.000000 -121.068200 -16.857400 -17.172700 -3.680700 0.000000 0.000000 0.000000 0.000000 0.000000 0.000000 -9.535100 12.044300 -42.604300 15.206600 0.000000 0.000000 -4.509300 6.116500 -22.591900 -14.103800 0.000000 0.000000 5.265600 4.370400 30.659500 20.616000 0.000000 0.000000 4.686700 8.239800 22.390400 -18.694900 0.000000 0.000000 
-0.333713 -0.008128 0.812752 -6.218600 -3.805700 -42.424500 -1.289400 4.994600 0.165300 -0.756300 0.870000 0.184700 -0.187500 6.063100 -0.857200 0.383200 1.857600 -2.033100 1.555500 -5.921400 -4.801100 10.642800 -5.065100 1.801000 -24.699700 19.677900 28.411300 -64.433600 -3.844700 28.575200 0.000000 0.000100 69.875700 11.061500 39.870500 1.407300 0.000000 0.000000 0.000000 0.000000 0.000000 0.000000 0.364900 3.135400 -16.078000 30.226800 58.442500 -47.933100 -0.000100 0.000000 -120.780200 -17.643300 -17.195700 -4.292900 0.000000 0.000000 0.000000 0.000000 0.000000 0.000000 -9.588100 7.205600 -39.402300 14.317900 0.000000 0.000000 -6.748400 7.322800 -18.785900 -4.410900 0.000000 0.000000 3.248200 1.132200 28.501700 30.597500 0.000000 0.000000 8.362700 7.613300 24.717900 -20.646500 0.000000 0.000000 
-0.362204 -0.001595 0.805363 -4.975400 -1.935900 -55.650600 -1.856300 3.438900 0.015800 -1.328100 1.045800 0.151800 0.232700 6.635700 -2.183100 0.342600 2.187100 -2.628400 0.112300 -6.075000 -5.900500 9.939000 -4.928900 0.535800 -25.463000 16.591800 26.683900 -64.224000 -5.849400 26.027500 0.000000 0.000100 75.181300 16.351100 43.492300 -5.998300 0.000000 0.000000 0.000000 0.000000 0.000000 0.000000 0.501800 2.451100 -15.196900 30.561700 56.433800 -46.507100 -0.000100 0.000000 -120.308500 -19.093100 -18.261500 -5.240800 0.000000 0.000000 0.000000 0.000000 0.000000 0.000000 -9.608900 0.646900 -28.819700 13.608600 0.000000 0.000000 -8.515300 9.039300 -16.184700 1.820700 0.000000 0.000000 -1.233000 -3.478500 24.133300 43.459800 0.000000 0.000000 15.814800 3.283000 22.034500 -21.563700 0.000000 0.000000 
-0.387431 0.004277 0.799620 -3.116500 -0.478300 -68.993500 -2.192400 2.082900 -0.071300 -1.696600 1.048200 0.071100 0.555400 6.260400 -3.619400 0.329300 2.416900 -3.042800 -1.450300 -5.845500 -7.721200 9.361700 -5.243900 -1.654700 -23.134900 14.068300 23.048700 -65.504300 -8.579800 24.802300 0.000000 0.000100 80.497100 22.327200 45.724100 -13.293600 0.000000 0.000000 0.000000 0.000000 0.000000 0.000000 1.051500 1.913700 -14.617000 29.236600 52.714200 -42.675500 -0.000100 0.000000 -119.958900 -19.443700 -18.860900 -5.907800 0.000000 0.000000 0.000000 0.000000 0.000000 0.000000 -8.564100 -5.264500 -14.722400 13.312200 0.000000 0.000000 -8.795800 10.247100 -16.688300 2.606000 0.000000 0.000000 -5.696000 -6.854500 19.047300 55.606700 0.000000 0.000000 19.388900 -1.196800 17.357700 -20.735500 0.000000 0.000000 
-0.410355 0.007158 0.796961 -2.086900 0.521200 -82.998300 -2.188300 1.618300 -0.125700 -1.737400 1.123500 0.028100 0.854500 5.634600 -4.499500 0.325500 2.544600 -3.184700 -2.628400 -5.624500 -10.232200 8.814300 -5.662500 -4.585600 -17.969500 11.368300 18.927300 -68.551400 -11.579200 24.094600 0.000000 0.000100 85.651500 24.533700 46.845400 -16.513900 0.000000 0.000000 0.000000 0.000000 0.000000 0.000000 1.845100 1.144800 -14.469600 26.036800 47.898600 -35.491200 -0.000100 0.000000 -120.184200 -18.830600 -16.976900 -5.878100 0.000000 0.000000 0.000000 0.000000 0.000000 0.000000 -6.154300 -8.560800 -3.313500 13.688300 0.000000 0.000000 -9.284300 10.123200 -15.106600 1.132100 0.000000 0.000000 -9.342900 -7.407300 14.989600 64.926300 0.000000 0.000000 17.598000 -1.852600 17.080400 -20.975000 0.000000 0.000000 
-0.433111 0.009065 0.796275 -1.690800 1.417200 -97.947900 -2.064600 1.609300 -0.101700 -1.642300 1.279500 0.052500 1.013600 5.334100 -4.498400 0.329500 2.650500 -3.082500 -3.201300 -5.257200 -12.952900 8.153600 -6.270200 -7.906300 -12.879400 7.860100 16.110200 -71.096500 -15.134400 22.766400 0.000000 0.000100 90.907900 21.220600 46.886600 -14.597500 0.000000 0.000000 0.000000 0.000000 0.000000 0.000000 2.540300 0.284500 -14.310500 22.459900 42.160800 -25.583200 -0.000100 0.000000 -121.420900 -19.287500 -14.298600 -6.085100 0.000000 0.000000 0.000000 0.000000 0.000000 0.000000 -3.101100 -9.506400 4.339400 14.530600 0.000000 0.000000 -10.777300 9.176400 -8.892000 0.813400 0.000000 0.000000 -12.428300 -6.671400 13.201500 70.727700 0.000000 0.000000 14.131700 -1.385600 20.767900 -22.612500 0.000000 0.000000 
-0.455910 0.011905 0.796547 -1.150700 2.089900 -113.612000 -2.020200 1.437500 -0.006400 -1.582700 1.326400 0.117500 1.002300 5.256500 -3.803300 0.347100 2.821900 -2.832200 -3.634000 -4.423300 -15.371600 7.571800 -7.207700 -11.261400 -9.054300 4.201000 14.530400 -72.382500 -20.211100 20.591400 0.000000 0.000100 96.620600 16.520500 45.434400 -10.927400 0.000000 0.000000 0.000000 0.000000 0.000000 0.000000 3.472000 -0.311500 -13.296400 20.391000 35.297300 -15.049200 -0.000100 0.000000 -123.374700 -21.317300 -13.524400 -7.055400 0.000000 0.000000 0.000000 0.000000 0.000000 0.000000 -0.281600 -9.273200 10.305500 15.456400 0.000000 0.000000 -12.253300 8.328400 -1.583100 1.238700 0.000000 0.000000 -14.974500 -6.783800 13.569700 72.931900 0.000000 0.000000 10.069500 -1.994200 23.498800 -22.715900 0.000000 0.000000 
